<svg width="2054" height="1572" viewBox="0 0 2054 1572" fill="none" xmlns="http://www.w3.org/2000/svg">
<rect x="2054" width="1572" height="2054" rx="83" transform="rotate(90 2054 0)" fill="#C3C4C4"/>
<rect x="2047" y="8" width="1556" height="2039" rx="80" transform="rotate(90 2047 8)" fill="#0A0A0A"/>
<rect x="1991" y="62" width="1446" height="1927" rx="30" transform="rotate(90 1991 62)" fill="#2D2D2D"/>
<rect x="1991" y="62" width="1446" height="1927" rx="30" transform="rotate(90 1991 62)" fill="url(#paint0_linear)"/>
<mask id="mask0" mask-type="alpha" maskUnits="userSpaceOnUse" x="873" y="631" width="307" height="307">
<path d="M1154.82 631H898.184C884.275 631 873 642.275 873 656.184V912.816C873 926.725 884.275 938 898.184 938H1154.82C1168.72 938 1180 926.725 1180 912.816V656.184C1180 642.275 1168.72 631 1154.82 631Z" fill="white"/>
<path d="M1154.82 631H898.184C884.275 631 873 642.275 873 656.184V912.816C873 926.725 884.275 938 898.184 938H1154.82C1168.72 938 1180 926.725 1180 912.816V656.184C1180 642.275 1168.72 631 1154.82 631Z" fill="url(#paint1_linear)"/>
</mask>
<g mask="url(#mask0)">
<path d="M886.904 230.105L616.047 885.94C610.738 898.796 613.771 917.778 622.821 928.339L1067.63 1447.36C1076.68 1457.92 1088.32 1456.06 1093.63 1443.21L1364.48 787.374C1369.79 774.519 1366.76 755.536 1357.71 744.975L912.904 225.95C903.854 215.39 892.213 217.25 886.904 230.105Z" fill="white"/>
<path d="M886.904 230.105L616.047 885.94C610.738 898.796 613.771 917.778 622.821 928.339L1067.63 1447.36C1076.68 1457.92 1088.32 1456.06 1093.63 1443.21L1364.48 787.374C1369.79 774.519 1366.76 755.536 1357.71 744.975L912.904 225.95C903.854 215.39 892.213 217.25 886.904 230.105Z" fill="url(#paint2_linear)"/>
<path d="M972.193 799.335L971.937 799.592L951.78 816.924V874.44H944.848V677.243H951.78V809.349L968.085 793.943L1031.25 735.529H1041.14L977.329 794.714L1045.11 874.44H1036.13L972.193 799.335ZM1079.91 874.44V742.59H1055.77V735.529H1079.91V715.244C1079.99 702.406 1083.2 692.435 1089.54 685.331C1095.95 678.142 1104.86 674.547 1116.24 674.547C1122.57 674.547 1128.05 675.275 1132.67 676.729L1131.65 683.406C1127.19 682.121 1122.1 681.48 1116.37 681.48C1107.21 681.48 1099.98 684.475 1094.67 690.467C1089.45 696.372 1086.84 704.803 1086.84 715.758V735.529H1123.56V742.59H1086.84V874.44H1079.91Z" fill="white"/>
<path d="M972.193 799.335L971.937 799.592L951.78 816.924V874.44H944.848V677.243H951.78V809.349L968.085 793.943L1031.25 735.529H1041.14L977.329 794.714L1045.11 874.44H1036.13L972.193 799.335ZM1079.91 874.44V742.59H1055.77V735.529H1079.91V715.244C1079.99 702.406 1083.2 692.435 1089.54 685.331C1095.95 678.142 1104.86 674.547 1116.24 674.547C1122.57 674.547 1128.05 675.275 1132.67 676.729L1131.65 683.406C1127.19 682.121 1122.1 681.48 1116.37 681.48C1107.21 681.48 1099.98 684.475 1094.67 690.467C1089.45 696.372 1086.84 704.803 1086.84 715.758V735.529H1123.56V742.59H1086.84V874.44H1079.91Z" fill="url(#paint3_linear)"/>
</g>
<path d="M1941.56 934.871H1951.52C1952.05 934.871 1952.48 935.298 1952.48 935.828V1034.9C1952.48 1035.43 1952.05 1035.86 1951.52 1035.86H1941.56C1941.03 1035.86 1940.6 1035.43 1940.6 1034.9V935.828C1940.6 935.298 1941.03 934.871 1941.56 934.871Z" fill="#12284A"/>
<path d="M1941.56 936.113H1951.52C1952.05 936.113 1952.48 936.54 1952.48 937.07V1034.04C1952.48 1034.57 1952.05 1034.99 1951.52 1034.99H1941.56C1941.03 1034.99 1940.6 1034.57 1940.6 1034.04V937.07C1940.6 936.54 1941.03 936.113 1941.56 936.113Z" fill="url(#paint4_linear)"/>
<path d="M1527.48 913.098H1537.44C1537.97 913.098 1538.4 913.524 1538.4 914.054V975.239C1538.4 975.769 1537.97 976.196 1537.44 976.196H1527.48C1526.95 976.196 1526.52 975.769 1526.52 975.239V914.054C1526.52 913.524 1526.95 913.098 1527.48 913.098Z" fill="#12284A"/>
<path d="M1527.48 914.342H1537.44C1537.97 914.342 1538.4 914.769 1538.4 915.299V974.378C1538.4 974.908 1537.97 975.335 1537.44 975.335H1527.48C1526.95 975.335 1526.52 974.908 1526.52 974.378V915.299C1526.52 914.769 1526.95 914.342 1527.48 914.342Z" fill="url(#paint5_linear)"/>
<path d="M1527.48 995.416H1537.44C1537.97 995.416 1538.4 995.843 1538.4 996.373V1057.56C1538.4 1058.09 1537.97 1058.51 1537.44 1058.51H1527.48C1526.95 1058.51 1526.52 1058.09 1526.52 1057.56V996.373C1526.52 995.843 1526.95 995.416 1527.48 995.416Z" fill="#12284A"/>
<path d="M1527.48 996.658H1537.44C1537.97 996.658 1538.4 997.085 1538.4 997.615V1056.69C1538.4 1057.22 1537.97 1057.65 1537.44 1057.65H1527.48C1526.95 1057.65 1526.52 1057.22 1526.52 1056.69V997.615C1526.52 997.085 1526.95 996.658 1527.48 996.658V996.658Z" fill="url(#paint6_linear)"/>
<path d="M1537.44 850.605H1527.48C1526.95 850.605 1526.52 851.034 1526.52 851.562V882.436C1526.52 882.964 1526.95 883.393 1527.48 883.393H1537.44C1537.97 883.393 1538.4 882.964 1538.4 882.436V851.562C1538.4 851.034 1537.97 850.605 1537.44 850.605Z" fill="#12284A"/>
<path d="M1537.44 851.848H1527.48C1526.95 851.848 1526.52 852.276 1526.52 852.804V881.573C1526.52 882.101 1526.95 882.53 1527.48 882.53H1537.44C1537.97 882.53 1538.4 882.101 1538.4 881.573V852.804C1538.4 852.276 1537.97 851.848 1537.44 851.848Z" fill="url(#paint7_linear)"/>
<path d="M1883.21 714.984H1595.79C1559.65 714.984 1530.34 744.264 1530.34 780.382V1505.62C1530.34 1541.74 1559.65 1571.02 1595.79 1571.02H1883.21C1919.35 1571.02 1948.66 1541.74 1948.66 1505.62V780.382C1948.66 744.264 1919.35 714.984 1883.21 714.984Z" fill="#455D80" stroke="#12284A" stroke-width="0.999999" stroke-linecap="round" stroke-linejoin="round"/>
<g filter="url(#filter0_f)">
<path d="M1595.79 717.277C1560.76 717.277 1532.63 745.381 1532.63 780.381V1505.62C1532.63 1540.62 1560.76 1568.72 1595.79 1568.72H1883.21C1918.24 1568.72 1946.36 1540.62 1946.36 1505.62V780.381C1946.36 745.381 1918.24 717.277 1883.21 717.277H1595.79Z" fill="#142B4B"/>
</g>
<path d="M1854.87 714.396V728.455H1864.44V714.396H1854.87ZM1529.75 799.799V809.363H1949.25V799.799H1529.75ZM1529.75 1478.13V1487.69H1949.25V1478.13H1529.75ZM1614.56 1559.5V1571.6H1624.13V1559.5H1614.56Z" fill="#445B75"/>
<path d="M1882.1 720.377H1596.89C1562.82 720.377 1535.19 747.979 1535.19 782.028V1503.97C1535.19 1538.02 1562.82 1565.62 1596.89 1565.62H1882.1C1916.18 1565.62 1943.81 1538.02 1943.81 1503.97V782.028C1943.81 747.979 1916.18 720.377 1882.1 720.377Z" fill="black" stroke="#434343" stroke-width="0.500001"/>
<path d="M1781.46 753.023C1785.75 753.023 1789.22 749.549 1789.22 745.263C1789.22 740.978 1785.75 737.504 1781.46 737.504C1777.17 737.504 1773.69 740.978 1773.69 745.263C1773.69 749.549 1777.17 753.023 1781.46 753.023Z" fill="#161616"/>
<path d="M1781.46 750.049C1784.1 750.049 1786.25 747.906 1786.25 745.263C1786.25 742.619 1784.1 740.477 1781.46 740.477C1778.81 740.477 1776.67 742.619 1776.67 745.263C1776.67 747.906 1778.81 750.049 1781.46 750.049Z" fill="#0A0D13"/>
<path d="M1781.46 748.911C1783.47 748.911 1785.11 747.278 1785.11 745.264C1785.11 743.25 1783.47 741.617 1781.46 741.617C1779.44 741.617 1777.81 743.25 1777.81 745.264C1777.81 747.278 1779.44 748.911 1781.46 748.911Z" fill="#091427"/>
<g filter="url(#filter1_f)">
<path fill-rule="evenodd" clip-rule="evenodd" d="M1778.95 742.824C1778.51 742.87 1777.9 743.53 1777.85 744.827C1777.81 746.124 1778.38 746.83 1778.69 746.83C1779.01 746.83 1780.34 744.941 1778.95 742.824H1778.95Z" fill="#235A91" fill-opacity="0.556075"/>
</g>
<g filter="url(#filter2_f)">
<path fill-rule="evenodd" clip-rule="evenodd" d="M1782.05 742.369C1781.37 742.579 1781.24 743.681 1781.26 744.311C1781.29 744.94 1782.18 746.593 1783.26 746.226C1784.34 745.859 1784.52 744.494 1784.07 743.576C1783.63 742.658 1782.81 742.002 1782.05 742.369V742.369Z" fill="#235A91" fill-opacity="0.556075"/>
</g>
<path d="M1722.04 740.904C1719.83 740.904 1718.05 742.682 1718.05 744.891C1718.05 747.1 1719.83 748.878 1722.04 748.878H1759.52C1761.73 748.878 1763.51 747.1 1763.51 744.891C1763.51 742.682 1761.73 740.904 1759.52 740.904H1722.04Z" stroke="#292929" stroke-width="0.24918" stroke-linecap="round"/>
<g filter="url(#filter3_f)">
<path d="M1718.59 744.89C1718.59 745.057 1718.57 745.223 1718.52 745.377C1718.48 745.531 1718.41 745.671 1718.33 745.789C1718.24 745.907 1718.14 746.001 1718.03 746.065C1717.92 746.129 1717.8 746.162 1717.69 746.162C1717.57 746.162 1717.45 746.129 1717.34 746.065C1717.23 746.001 1717.13 745.907 1717.04 745.789C1716.96 745.671 1716.89 745.531 1716.85 745.377C1716.8 745.223 1716.78 745.057 1716.78 744.89C1716.78 744.723 1716.8 744.558 1716.85 744.404C1716.89 744.25 1716.96 744.11 1717.04 743.991C1717.13 743.873 1717.23 743.78 1717.34 743.716C1717.45 743.652 1717.57 743.619 1717.69 743.619C1717.8 743.619 1717.92 743.652 1718.03 743.716C1718.14 743.78 1718.24 743.873 1718.33 743.991C1718.41 744.11 1718.48 744.25 1718.52 744.404C1718.57 744.558 1718.59 744.723 1718.59 744.89V744.89Z" fill="white"/>
<path d="M1763.51 744.89C1763.51 745.057 1763.49 745.223 1763.44 745.377C1763.4 745.531 1763.33 745.671 1763.25 745.789C1763.16 745.907 1763.06 746.001 1762.95 746.065C1762.84 746.129 1762.72 746.162 1762.61 746.162C1762.49 746.162 1762.37 746.129 1762.26 746.065C1762.15 746.001 1762.05 745.907 1761.96 745.789C1761.88 745.671 1761.81 745.531 1761.77 745.377C1761.72 745.223 1761.7 745.057 1761.7 744.89C1761.7 744.723 1761.72 744.558 1761.77 744.404C1761.81 744.25 1761.88 744.11 1761.96 743.991C1762.05 743.873 1762.15 743.78 1762.26 743.716C1762.37 743.652 1762.49 743.619 1762.61 743.619C1762.72 743.619 1762.84 743.652 1762.95 743.716C1763.06 743.78 1763.16 743.873 1763.25 743.991C1763.33 744.11 1763.4 744.25 1763.44 744.404C1763.49 744.558 1763.51 744.723 1763.51 744.89V744.89Z" fill="white"/>
</g>
<path d="M1595.25 733.941C1570.5 733.941 1550.44 753.984 1550.44 778.71V1507.29C1550.44 1532.02 1570.5 1552.06 1595.25 1552.06H1883.75C1908.5 1552.06 1928.56 1532.02 1928.56 1507.29V778.71C1928.56 753.984 1908.5 733.941 1883.75 733.941H1849.56C1844.32 733.941 1841.61 734.482 1841.61 742.782C1841.61 751.081 1836.47 765.065 1818.05 765.065H1660.95C1642.53 765.065 1637.39 751.081 1637.39 742.782C1637.39 734.482 1634.68 733.941 1629.44 733.941H1595.25Z" fill="url(#paint8_linear)"/>
<mask id="mask1" mask-type="alpha" maskUnits="userSpaceOnUse" x="1640" y="1041" width="202" height="202">
<path d="M1824.75 1041.92H1656.6C1647.49 1041.92 1640.1 1049.3 1640.1 1058.41V1226.42C1640.1 1235.52 1647.49 1242.9 1656.6 1242.9H1824.75C1833.86 1242.9 1841.25 1235.52 1841.25 1226.42V1058.41C1841.25 1049.3 1833.86 1041.92 1824.75 1041.92Z" fill="white"/>
<path d="M1824.75 1041.92H1656.6C1647.49 1041.92 1640.1 1049.3 1640.1 1058.41V1226.42C1640.1 1235.52 1647.49 1242.9 1656.6 1242.9H1824.75C1833.86 1242.9 1841.25 1235.52 1841.25 1226.42V1058.41C1841.25 1049.3 1833.86 1041.92 1824.75 1041.92Z" fill="url(#paint9_linear)"/>
</mask>
<g mask="url(#mask1)">
<path d="M1649.21 779.465L1471.74 1208.82C1468.27 1217.24 1470.25 1229.66 1476.18 1236.58L1767.62 1576.37C1773.55 1583.28 1781.18 1582.06 1784.66 1573.65L1962.13 1144.29C1965.6 1135.88 1963.62 1123.45 1957.69 1116.53L1666.25 776.745C1660.32 769.831 1652.69 771.049 1649.21 779.465Z" fill="white"/>
<path d="M1649.21 779.465L1471.74 1208.82C1468.27 1217.24 1470.25 1229.66 1476.18 1236.58L1767.62 1576.37C1773.55 1583.28 1781.18 1582.06 1784.66 1573.65L1962.13 1144.29C1965.6 1135.88 1963.62 1123.45 1957.69 1116.53L1666.25 776.745C1660.32 769.831 1652.69 771.049 1649.21 779.465Z" fill="url(#paint10_linear)"/>
<path d="M1705.09 1152.13L1704.93 1152.29L1691.72 1163.64V1201.29H1687.18V1072.19H1691.72V1158.68L1702.4 1148.59L1743.79 1110.35H1750.27L1708.46 1149.1L1752.87 1201.29H1746.99L1705.09 1152.13ZM1775.67 1201.29V1114.98H1759.86V1110.35H1775.67V1097.07C1775.73 1088.67 1777.83 1082.14 1781.98 1077.49C1786.18 1072.78 1792.02 1070.43 1799.47 1070.43C1803.62 1070.43 1807.21 1070.91 1810.24 1071.86L1809.57 1076.23C1806.65 1075.39 1803.32 1074.97 1799.56 1074.97C1793.56 1074.97 1788.82 1076.93 1785.34 1080.85C1781.92 1084.72 1780.21 1090.24 1780.21 1097.41V1110.35H1804.27V1114.98H1780.21V1201.29H1775.67Z" fill="white"/>
<path d="M1705.09 1152.13L1704.93 1152.29L1691.72 1163.64V1201.29H1687.18V1072.19H1691.72V1158.68L1702.4 1148.59L1743.79 1110.35H1750.27L1708.46 1149.1L1752.87 1201.29H1746.99L1705.09 1152.13ZM1775.67 1201.29V1114.98H1759.86V1110.35H1775.67V1097.07C1775.73 1088.67 1777.83 1082.14 1781.98 1077.49C1786.18 1072.78 1792.02 1070.43 1799.47 1070.43C1803.62 1070.43 1807.21 1070.91 1810.24 1071.86L1809.57 1076.23C1806.65 1075.39 1803.32 1074.97 1799.56 1074.97C1793.56 1074.97 1788.82 1076.93 1785.34 1080.85C1781.92 1084.72 1780.21 1090.24 1780.21 1097.41V1110.35H1804.27V1114.98H1780.21V1201.29H1775.67Z" fill="url(#paint11_linear)"/>
</g>
<defs>
<filter id="filter0_f" x="1530.7" y="715.34" width="417.604" height="855.318" filterUnits="userSpaceOnUse" color-interpolation-filters="sRGB">
<feFlood flood-opacity="0" result="BackgroundImageFix"/>
<feBlend mode="normal" in="SourceGraphic" in2="BackgroundImageFix" result="shape"/>
<feGaussianBlur stdDeviation="0.968526" result="effect1_foregroundBlur"/>
</filter>
<filter id="filter1_f" x="1777.62" y="742.59" width="2.18782" height="4.47412" filterUnits="userSpaceOnUse" color-interpolation-filters="sRGB">
<feFlood flood-opacity="0" result="BackgroundImageFix"/>
<feBlend mode="normal" in="SourceGraphic" in2="BackgroundImageFix" result="shape"/>
<feGaussianBlur stdDeviation="0.117104" result="effect1_foregroundBlur"/>
</filter>
<filter id="filter2_f" x="1781.03" y="742.031" width="3.5076" height="4.48145" filterUnits="userSpaceOnUse" color-interpolation-filters="sRGB">
<feFlood flood-opacity="0" result="BackgroundImageFix"/>
<feBlend mode="normal" in="SourceGraphic" in2="BackgroundImageFix" result="shape"/>
<feGaussianBlur stdDeviation="0.117104" result="effect1_foregroundBlur"/>
</filter>
<filter id="filter3_f" x="1712.87" y="739.711" width="54.5532" height="10.3596" filterUnits="userSpaceOnUse" color-interpolation-filters="sRGB">
<feFlood flood-opacity="0" result="BackgroundImageFix"/>
<feBlend mode="normal" in="SourceGraphic" in2="BackgroundImageFix" result="shape"/>
<feGaussianBlur stdDeviation="1.9543" result="effect1_foregroundBlur"/>
</filter>
<linearGradient id="paint0_linear" x1="2119.5" y1="1638.5" x2="3775.5" y2="85" gradientUnits="userSpaceOnUse">
<stop stop-color="white"/>
<stop offset="1" stop-color="#A7A7A7"/>
</linearGradient>
<linearGradient id="paint1_linear" x1="1026.5" y1="631" x2="1026.5" y2="938" gradientUnits="userSpaceOnUse">
<stop stop-color="#AA5CC3" stop-opacity="0.61"/>
<stop offset="1" stop-color="#00A4DC" stop-opacity="0.61"/>
</linearGradient>
<linearGradient id="paint2_linear" x1="751.475" y1="558.022" x2="1356.08" y2="807.722" gradientUnits="userSpaceOnUse">
<stop stop-color="#AA5CC3" stop-opacity="0.61"/>
<stop offset="1" stop-color="#00A4DC" stop-opacity="0.61"/>
</linearGradient>
<linearGradient id="paint3_linear" x1="1026.5" y1="649.586" x2="1026.5" y2="919.41" gradientUnits="userSpaceOnUse">
<stop stop-color="white"/>
<stop offset="1" stop-color="white" stop-opacity="0"/>
</linearGradient>
<linearGradient id="paint4_linear" x1="1952.48" y1="936.113" x2="1952.48" y2="1035.04" gradientUnits="userSpaceOnUse">
<stop stop-color="#455D80"/>
<stop offset="0.2" stop-color="#19365E"/>
<stop offset="0.8" stop-color="#19365E"/>
<stop offset="1" stop-color="#455D80"/>
</linearGradient>
<linearGradient id="paint5_linear" x1="1538.4" y1="914.342" x2="1538.4" y2="975.335" gradientUnits="userSpaceOnUse">
<stop stop-color="#455D80"/>
<stop offset="0.2" stop-color="#19365E"/>
<stop offset="0.8" stop-color="#19365E"/>
<stop offset="1" stop-color="#455D80"/>
</linearGradient>
<linearGradient id="paint6_linear" x1="1538.4" y1="996.658" x2="1538.4" y2="1057.65" gradientUnits="userSpaceOnUse">
<stop stop-color="#455D80"/>
<stop offset="0.2" stop-color="#19365E"/>
<stop offset="0.8" stop-color="#19365E"/>
<stop offset="1" stop-color="#455D80"/>
</linearGradient>
<linearGradient id="paint7_linear" x1="1538.4" y1="851.848" x2="1538.4" y2="882.53" gradientUnits="userSpaceOnUse">
<stop stop-color="#455D80"/>
<stop offset="0.2" stop-color="#19365E"/>
<stop offset="0.8" stop-color="#19365E"/>
<stop offset="1" stop-color="#455D80"/>
</linearGradient>
<linearGradient id="paint8_linear" x1="1601.28" y1="786.873" x2="1912.57" y2="1558.66" gradientUnits="userSpaceOnUse">
<stop stop-color="white"/>
<stop offset="0.911458" stop-color="#A7A7A7"/>
</linearGradient>
<linearGradient id="paint9_linear" x1="1740.68" y1="1041.92" x2="1740.68" y2="1242.9" gradientUnits="userSpaceOnUse">
<stop stop-color="#AA5CC3" stop-opacity="0.61"/>
<stop offset="1" stop-color="#00A4DC" stop-opacity="0.61"/>
</linearGradient>
<linearGradient id="paint10_linear" x1="1560.48" y1="994.142" x2="1956.53" y2="1157.84" gradientUnits="userSpaceOnUse">
<stop stop-color="#AA5CC3" stop-opacity="0.61"/>
<stop offset="1" stop-color="#00A4DC" stop-opacity="0.61"/>
</linearGradient>
<linearGradient id="paint11_linear" x1="1740.68" y1="1054.09" x2="1740.68" y2="1230.73" gradientUnits="userSpaceOnUse">
<stop stop-color="white"/>
<stop offset="1" stop-color="white" stop-opacity="0"/>
</linearGradient>
</defs>
</svg>
